<svg width="25" height="25" viewBox="0 0 25 25" fill="none" xmlns="http://www.w3.org/2000/svg">
<g id="pinterest 1" clip-path="url(#clip0_25738_86)">
<g id="Group">
<path id="Vector" d="M12.5 25C19.4035 25 24.9998 19.4036 24.9998 12.5002C24.9998 5.59677 19.4035 0.000427246 12.5 0.000427246C5.59659 0.000427246 0.000244141 5.59677 0.000244141 12.5002C0.000244141 19.4036 5.59659 25 12.5 25Z" fill="#CB2027"/>
<g id="Group_2">
<path id="Vector_2" d="M13.5089 16.7387C12.5639 16.6656 12.1669 16.197 11.4258 15.7471C11.0185 17.8842 10.5207 19.9328 9.04628 21.003C8.59061 17.773 9.71429 15.347 10.2361 12.7718C9.34664 11.2745 10.3431 8.26059 12.2192 9.00326C14.5283 9.91637 10.2201 14.5709 13.1123 15.1522C16.1317 15.7592 17.3644 9.91303 15.4918 8.01148C12.7863 5.26611 7.61666 7.94909 8.25237 11.8792C8.40723 12.84 9.40012 13.1317 8.64899 14.4575C6.91745 14.074 6.40095 12.7083 6.46735 10.8876C6.57453 7.90742 9.14521 5.82071 11.7237 5.53194C14.9847 5.16696 18.0453 6.72937 18.4678 9.79672C18.9431 13.2587 16.9956 17.0079 13.5089 16.7387Z" fill="#F1F2F2"/>
</g>
</g>
</g>
<defs>
<clipPath id="clip0_25738_86">
<rect width="25" height="25" fill="white"/>
</clipPath>
</defs>
</svg>
